<?xml version="1.0" encoding="UTF-8"?>
<svg id="Layer_2" data-name="Layer 2" xmlns="http://www.w3.org/2000/svg" xmlns:xlink="http://www.w3.org/1999/xlink" viewBox="0 0 1398.86 398.54">
  <defs>
    <style>
      .cls-1, .cls-2 {
        fill: #fff;
      }

      .cls-3 {
        fill: #000945;
      }

      .cls-3, .cls-2, .cls-4 {
        fill-rule: evenodd;
      }

      .cls-5 {
        clip-path: url(#clippath-2);
      }

      .cls-6 {
        clip-path: url(#clippath-1);
      }

      .cls-7 {
        stroke-width: .26px;
      }

      .cls-7, .cls-8, .cls-9 {
        fill: none;
      }

      .cls-7, .cls-9 {
        stroke: #fff;
        stroke-miterlimit: 10;
      }

      .cls-10 {
        clip-path: url(#clippath);
      }

      .cls-11 {
        fill: #191649;
      }

      .cls-9 {
        stroke-width: .27px;
      }

      .cls-12 {
        fill: url(#linear-gradient);
      }

      .cls-13 {
        fill: #0eb2e9;
      }

      .cls-4 {
        fill: #29416d;
      }
    </style>
    <clipPath id="clippath">
      <rect class="cls-8" width="1398.86" height="398.54"/>
    </clipPath>
    <clipPath id="clippath-1">
      <path class="cls-8" d="m928.47,235.22c0,5.21,1.03,10.19,2.9,14.73,2.5,3.82,6.61,3.89,6.82,3.89,4.09,0,7.52-3.02,7.98-7.03h3.37c.47,4.01,3.9,7.03,7.98,7.03.24,0,.5,0,.76,0,3.55.06,6.9.11,7.25-7.44h3.39c.05.74.67,7.43,8.05,7.43h.02c4.09,0,7.52-3.03,7.99-7.03h3.37c.46,4.01,3.9,7.03,7.98,7.03,2.94,0,5.49-1.59,7.1-4.24,1.77-4.45,2.76-9.3,2.76-14.38,0-21.46-17.4-38.87-38.87-38.87s-38.86,17.4-38.86,38.87"/>
    </clipPath>
    <linearGradient id="linear-gradient" x1="0" y1="398.54" x2="1" y2="398.54" gradientTransform="translate(-21948.79 253.86) rotate(-90) scale(57.5)" gradientUnits="userSpaceOnUse">
      <stop offset="0" stop-color="#dd5134"/>
      <stop offset=".12" stop-color="#df5b35"/>
      <stop offset=".34" stop-color="#e4793b"/>
      <stop offset=".63" stop-color="#eda843"/>
      <stop offset=".97" stop-color="#fae94f"/>
      <stop offset="1" stop-color="#fbef50"/>
    </linearGradient>
    <clipPath id="clippath-2">
      <rect class="cls-8" width="1398.86" height="398.54"/>
    </clipPath>
  </defs>
  <g id="Layer_1-2" data-name="Layer 1">
    <g>
      <g class="cls-10">
        <path class="cls-3" d="m129.77,227.67c-.28-1.18.01-1.54.41-1.52.02,0,2.41.75,2.63.82,3.13.88,7.26,1.92,5.25-5.69-1.66-6.3-2.13-9.99-2.91-16.46-.85-7.05-1.31-16.95-2.58-23.47-2.99-1.58-4.24-1.12-5.97,1.24-3.18,4.35-4.16,4.84-8.62,11.31-4.62,6.69-16.07,24.33-12.09,32.97.61,1.32.92,1.78,2.4,1.5,2.17-.4,3.63-2.06,5.07-3.13.62,26.9,21.68,48.35,39.09,66.39.36.77,1.08,5.46,1.37,6.8.65,2.97.8,11.8,4.99,11.34,2.29-.99,6.57-4.44,8.78-6.06,4.64-3.4,3.96-4.07,11.11-4.2,35.47-.65,40.38-1.63,70.48-19.99.48,3.3.07,4.63,3.03,6.36,2.84.19,4.11-1.25,5.43-2.84l3.07-5.62c1.77-4.03,4-7.34,5.17-11.67,1.21-4.45,6-24.12,4.93-28.18-1.18-2.51-3.74-2.67-6.05-1.01-3.05,2.2-6.27,5.64-9.54,7.83-1.06.72-1.24,1.06-2.17,1.91l-4.77,3.87c-3.8,3.54-8.44,6.43-12.78,9.18-2.56,1.63-3.77,1.39-4.46,4.96,1.43,3.35,3.68,3.27,6.7,4.68-1.51,1.38-1.31,1-3.15,1.71-1.74.66-2.31,1.28-3.73,1.84-9.89,3.91-17.5,5.16-27.83,1.09-5.82-2.29-10.28-4.39-11.07-11.39-.77-6.77,1.96-13.18,4.42-18.02,3.2-8.12,6.4-15.93,9.67-24,.99-2.45,2.04-5.57,3.06-8.21l8.16-19.9c1.09-2.71,3.87-10.29,4.82-11.83,1.9.21,3.08.99,4.78,1.69,1.83.76,3.31.73,5.19,1.4,3.07,1.1,18.73,5.13,21.47,4.62,2.9-.54,4.49-5.78,5.45-8.25,3.11-7.97,3.31-6.77-4.43-11.67-1.48-.94-3.1-2.13-4.42-2.74-2.69-1.24-7.54-4.36-10.71-6.01-2.19-1.14-4.59-2.1-6.83-3.21l1.34-4.65c10.49.21,14.27-1.62,22.2-7.24,3.9-2.76,7.82-9.46,9.36-14.12,3.1-11.52-1-22.53-8.66-29.14-27.74-23.92-65.26,8.79-43.86,39.75,1.68,1.86,1.82,1.75,3.59,3.5-.55,1.74-1.51,3.21-2.24,4.74-5.98-2.05-27.82-9.08-34.22-7.27-.94,3.1-5.48,13.02-5.37,13.89.03.25.07.48.12.67.33,1.41,7.64,5.54,9.38,6.6,3.48,2.14,8.45,4.79,12.11,6.77l7.88,3.83c-10.44,23.3-20.13,54.25-33.8,74.89-.46.69-.73,1.25-1.25,1.82-.56.61-.09.13-.81.72-.08.07-.21.15-.3.22-6.19,4.88-10.47,4.33-17.58,1.59-7.46-2.87-8.54-4.75-13.4-9.54-2.38-2.35-6.51-11.03-7.34-15.53m102.71-122.12c6.02-2.37,15.88,1.03,19.12,8.36,2.85,6.46,2.5,8.73-.91,15.19-3.64,6.9-16.68,12.93-26.54,2.04-4.59-5.07-4.08-14.13-1.12-18.48,2.3-3.38,5.71-5.63,9.46-7.11"/>
        <path class="cls-2" d="m232.47,105.55c-3.75,1.48-7.16,3.74-9.46,7.11-2.96,4.34-3.47,13.4,1.12,18.48,9.86,10.89,22.9,4.87,26.54-2.04,3.41-6.46,3.77-8.73.91-15.19-3.24-7.33-13.1-10.73-19.12-8.36"/>
        <path class="cls-4" d="m595.7,93.88v69.92c0,1.99,1.31,1.53,4.59,1.53,1.18,0,1.53-.36,1.53-1.53v-34.71h43.89v34.71c0,2.08,1.6,1.53,5.61,1.53v-72.98h-5.61v31.13h-43.89v-29.6c0-1.98-1.31-1.53-4.59-1.53-1.18,0-1.53.35-1.53,1.53m66.86,71.45h5.61c.35-1.49,1.46-4.15,2.04-5.61,1.11-2.8,5.94-15.63,6.12-17.86h35.73c1.02,4.39,7.86,19.98,8.68,23.48,8.79,0,7.74,2.5.87-14.65l-19.84-48.55c-1.17-2.9-2.57-7.05-4-9.77h-7.66l-20.85,54.17c-1.32,3.27-6.65,16.32-6.71,18.81m31.64-66.86c.51,2.19.99,2.84,1.83,4.81l14,33.98h-31.64l7.58-19.47c1.37-3.42,2.47-6.42,3.86-9.92.86-2.15,2.84-8.28,4.38-9.4m-322.05,66.86h5.61c.69-1.43,1.51-3.91,2.1-5.56l6.57-17.92h35.22l9.19,23.48h6.12c-.19-2.25-2.69-7.26-3.51-9.25l-7.36-18.16c-1.31-3.28-2.41-5.75-3.72-9.04l-15.02-36.53h-7.66l-20.78,54.25c-1.26,3.15-6.58,16.28-6.78,18.74m31.13-67.37l16.33,39.3h-31.64l15.31-39.3Zm115.34,27.05c0,11.05.83,22.82,8.54,30.76,8.71,8.97,14.83,10.58,27.19,10.58,6.45,0,14.15-3.24,17.49-6.5,5.08-4.94,6.69-7.5,8.54-15.45h-6.12c-1.95,23.46-49.51,23.73-49.51-11.74,0-10.39-.31-19.4,7.02-27.68,8.18-9.25,24.41-10.6,34.75-3.88,3.1,2.02,7.36,6.58,7.74,11.14h6.12c-1.75-3.65-1.93-5.46-5.49-10.91-.77-1.17-2.1-2.2-3.57-3.51-3.92-3.49-9.93-5.89-16.52-6.51h-6.67c-10.59.99-21.39,6.83-26.74,20.11-1.36,3.36-2.76,9.13-2.76,13.58m-195.98,38.79c0,1.18.35,1.53,1.53,1.53h41.34v-6.12h-37.26v-66.86h-5.61v71.45Zm124.53-69.92v69.92c0,1.99,1.31,1.53,4.59,1.53,2.36,0,1.54-4.07,1.53-6.63v-58.18c1.3.95,9.65,13.97,11.23,16.33,3.69,5.54,7.23,10.85,11.02,16.54l19.18,28.79c2.44,3.78,1.82,3.16,9.09,3.16v-72.98h-5.61v64.82c-1.77-1.29-24.37-36.3-27.25-40.62l-13.68-20.52c-2.85-4.32-1.44-3.67-8.58-3.67-1.18,0-1.53.35-1.53,1.53"/>
        <path class="cls-3" d="m451.78,201.57l9.81-14.17,8.7-9.17c8.24-6.75,12.49,2.21-1.53,15.82-2.94,2.86-11.44,7.52-16.98,7.52m211.3,54.1c-2.27-9.76,2.14-22.97,15.31-22.97,8.35,0,16.33,7.84,16.33,16.33,0,8.92-.93,16.61-5.1,24.5-2.5-.58-5.18-.83-7.6-1.58-2.4-.75-4.72-1.92-7.2-2.5.47-1.77,2.08-3.42,3.16-5,3.06-4.48,8.07-10.43,8.07-16.43,0-8.25-8.95-6.69-15.18-.38-1.39,1.41-2.43,2.42-3.83,3.82-1.49,1.48-2.28,3.1-3.95,4.22m-75.03,43.38c-6.75,0,1.48-19.33,2.11-20.86.51-1.26,1.01-2.09,1.61-3.49.69-1.59.93-2.37,1.71-3.9,4.59-8.98,17.73-28.4,26.72-28.4,3.01,0,4.59,2.76,4.59,5.61,0,1.51-2,6.79-2.55,8.17-5.72,14.33-.61,7.97-10.93,22.24-4.03,5.57-15.2,20.63-23.26,20.63m-251.61,0c-10.88,0,6.16-31.4,8.32-35.06,2.96-4.99,15.63-21.59,21.79-21.59,2.83,0,4.27-.18,5.21,2.96,1.55,5.2,1.22,9.12-1.47,13.54-1.48,2.43-2.61,4.19-3.91,6.81-1.18,2.39-2.14,4.72-3.36,6.84-2.09,3.64-6.11,8.78-8.78,12.15-1.01,1.27-1.23,1.54-2.36,2.75-3.41,3.67-10.19,11.61-15.44,11.61m401.07-44.32l2.81-4.5c.91-1.68,1.67-2.83,2.67-4.48,2.85-4.73,8.92-17.13-1.82-17.13-10.02,0-19.33,23.22-22.52,32.09-1.1,3.05-3.73,10.86-4.02,14.36-4.24,0-7.08.51-11.74.51.42-5.09,11.5-27.13-3.95-40.96-10.78-9.65-33.99-9.54-41.99,6.75-3.43,6.99-3.12,15.25,1.03,21.45-3.73,7.04-6.8,12.44-11.66,18.96-1.98,2.66-18.45,21.89-18.45,11.15,0-20.14,18.5-55.59,27.78-71.23l3.87-6.85c4.86-9.39,10.68-18.07,16.53-26.85,3.14-4.7,6.94-10.68,6.94-17.05s-9.06-7.97-21.22,8.89c-11.92,16.53-22.09,34.98-30.67,53.54-.98,2.11-1.05,3.71-2.72,4.94-1.09-4.09-7.6-7.66-11.74-7.66h-2.55c-11.46,0-24.3,13.82-29.9,23.18-2.34,3.91-3.91,7.76-6.23,11.63-7.05,11.75-19.43,34.75-30.72,40.73-6.31-11.93,16.33-38.9,16.33-51.04,0-4.33-2.54-7.15-6.12-7.15-1.85,0-1.79.61-3.57,1.02,0-4.58.44-8.78-2.12-12.68-8-12.19-28.45-3.77-39.22,10.63-1.69,2.26-1.45,3.07-4.59,3.07-8.06,0-13.24-2.64-14.11-10.41-.19-1.75,1.56-10.57-4.83-10.88-3.75-.19-6.07,3.75-6.07,7.51,0,4.62,2.04,9.92,2.04,16.33,0,8.31-6.92,19.94-10.23,25.5-1.9,3.19-7.23,9.55-10.07,12.39-1,1-1.4.98-2.55,2.04-2.19,2.04-2.47,2.5-5.23,3.96l-.51-5.1c0-14.41,6.31-25.95,12.42-38.1,3.25-6.46,16.72-24.67,1.87-24.67-4.97,0-10.02,6.97-12.08,10.88-2.77,5.26-5.5,10.19-7.68,15.8-1.56,4.01-3.58,6.28-5.96,9.86-4.12,6.17-8.23,12.45-13.46,17.68-5.04,5.03-10.41,13.15-18.49,13.15-3.96-16.99,17.72-57.2,25.69-71.79,9.96-18.23,5.34-13.3,17.59-16.6,11.1-2.99,20.6-10.65,25.45-20.99,3.04-6.49,4.24-21.27-6.47-21.27h-2.55c-7.69,0-19.09,11.84-23.35,16.45-1.02,1.1-1.08,1.47-2.04,2.55l-6.9,8.41c-3.03,4.06-5.76,7.74-8.53,11.89-7.39,0-14.03.63-21.97.53l-10.7-.53c-9.97,0-20.91.23-30.04,3.64-18.04,6.74-11.79,19.32-5.68,19.32s9.96-4.17,14.14-7.3c1.49-1.12,2.77-1.94,4.23-2.92,15.08-10.07,28.62-6.63,45.94-6.63-.69,2.59-5.44,9.36-6.81,12.07-5.38,10.6-10.3,21.52-14.04,32.91-2.3,6.99-16.11,29.02-21.07,35.59-4.85,6.42-5.61,7.45-11.27,12.71-1.2,1.12-1.4,1.48-3.46,1.65-3.58-6.77,4.32-21.94,6.98-27.22,3.39-6.75,9.36-16.03,9.36-23.82,0-6.75-5.34-8.02-9.7-5.1l.51-5.1c0-7.01-5.5-13.78-12.25-13.78-10.18,0-15.44,3.18-22.39,8.75-.81.65-.85.51-1.74,1.33-2.75,2.52-6.33,7.33-8.45,10.44-10.49,15.38-7.02,20.85-13.36,23.9l-8.68,4.08c0-13.24-3.57-22.59-3.57-35.22,0-20.31,15.62-17.7,7.33-3.39-1.01,1.75-4.78,4.36-4.78,5.94,0,8.8,12.76-2.86,12.76-10.72v-5.1c0-7.7-14.58-13.49-24.61,2.44-7.35,11.69-4.7,23.35-3.09,35.97.68,5.36.65,10.92.65,16.7-9.1.76-18.88,7.06-18.88,16.84,0,4.14.74,8.38,3.2,11.1,2.28,2.53,6.79,3.71,10.59,3.71,15.21,0,20.92-19.08,20.92-32.15,3.09-.72,6.95-3.65,9.7-5.1-5.19,22.3,9.97,31.76,25.89,20.28,2.67-1.92,5.34-3.87,7.36-6.42,1.12-1.42.9-1.57,2.48-2.62l-.51,7.14c0,6.28,3.51,14.8,9.19,14.8,9.79,0,15.24-6.44,20.77-12.91,1.17-1.37,2.24-2.92,3.29-4.36,1.83-2.5,8.09-12.74,9.62-13.86,0,6.58-3.31,19.9,11.74,19.9,11.6,0,19.03-9.24,26.16-16.71,1.88-1.97,4.81-6.54,6.51-7.78l-.51,9.19c0,12.89,8.83,19.75,19.1,12.97,6.71-4.43,11.5-11.06,16.26-17.42,6.16-8.23,10.95-19.22,13.64-30.77,4.65,3.11,6.03,4.08,13.78,4.08l-6.19,14.23c-2.7,8.11-6.47,22.85-.1,30.85,1.08,1.35,1.98,2.22,3.55,3.09,10.66,5.85,23.69-5.93,29.79-12.95-.13,5.79-2.8,18.01,6.62,21.97,5.11,2.15,11.3-1.41,14.67-4.25,10.98-9.26,12.24-15.6,18.52-22.82,0,6.38-.01,9.11,2.38,13.44,6.29,11.38,20.84,4.01,27.81-1.62,4.39-3.55,10.66-12.62,11.66-13.35,0,4.81-.29,9.05,1.21,12.58,3.27,7.71,16.07,6.39,23.6.49,3.17-2.49,5.81-6.42,8.88-8.47-1.15,4.93-.21,12.51,3.25,15.12,7.15,5.39,17.12,3.96,24.32.2,7.46-3.9,21.61-16.01,23.47-24l13.78-.51c0,5.74-.67,11.47,1.58,16.8,2.66,6.31,13.36,8.3,11.79-.52-1.91-10.72,4.18-21.52,9.69-29.97,1.06-1.63,2.34-3.21,3.47-4.69,3.51-4.59,7.5-8.76,11.61-12.89,2.47-2.48,16.2-12.95,8.91-2.31-2.41,3.52-4.95,10.1,1.94,10.1,3.33,0,5.54-3.97,6.94-6.33,5.35-9.07,3.67-17.84-5.28-17.04-9.52.85-22.12,14.72-26.16,22.35l-.6-.43Zm-226.01,44.32c-2.56,0-2.55-1.62-2.55-4.08,0-15.64,22.13-52.57,34.71-52.57,5.52,0,4.59,7.41,4.59,11.74,0,2.28-5.1,9.35-6.98,13.44-4.53,9.89-19.73,31.48-29.77,31.48m154.13,4.08c-4.7,0-4.08-2.76-4.08-5.1,0-6.23,7.45-19.87,10.21-23.99,4.07.95,9.52,4.08,15.31,4.08-.89,3.83-9.79,16.41-14.59,20.12-1.27.99-5.3,4.89-6.85,4.89m-378.19,5.1c-3.05,0-3.06-4.36-3.06-6.63,0-4.16,6.32-9.09,10.72-9.19-.93,1.94-1.33,6.84-2.21,9.53-.88,2.68-2.22,6.3-5.44,6.3"/>
        <path class="cls-11" d="m1080.85,256.09c-.02-1.14,0-2.29,0-3.43,0-1.73-.26-1.77-1.96-1.67-3.3.19-6.61.33-9.91.17-2.56-.12-3.92-1.52-4.22-4.04-.32-2.63-.5-5.29-.49-7.93,0-8.94.11-17.88.23-26.82.01-1.16-.31-1.6-1.54-1.58-3.73.06-7.2.06-10.93,0-1.17-.02-1.48.4-1.47,1.51.05,6,.03,35.89.03,35.89,0,0-.3,8.85,8.1,8.85,7.05.14,14.1.05,21.16.08.77,0,1.03-.31,1.02-1.01m38.6-18.93c-1.51-2.34-3.67-3.98-6.05-5.35-3.15-1.81-6.35-3.52-9.47-5.39-1.26-.75-2.54-1.62-3.48-2.71-2.75-3.19-.93-7.74,3.26-8.33,5.6-.78,9.6.21,13.67,3.98.27.25,2.23,1.31,2.53-3.6.16-2.66-1.29-5.65-11.98-5.65-4.23,0-8.38.17-12.31,1.82-4.21,1.77-7.24,4.63-8,9.25-1.02,6.18,1.4,10.98,6.59,14.38,3.34,2.19,6.89,4.08,10.32,6.14.77.46,1.55.93,2.27,1.46.5.39.97.82,1.37,1.29,2.75,3.19.93,7.74-3.26,8.33-5.6.78-9.6-.21-13.67-3.98-.27-.25-2.23-1.31-2.53,3.6-.16,2.66,1.29,5.65,11.98,5.65,4.23,0,8.38-.17,12.31-1.82,4.21-1.77,7.24-4.63,8-9.25.21-1.26.27-2.45.19-3.59h.03c0-2.19-.56-4.36-1.77-6.22m87.38.82c3.39-.85,6.12-2.34,8.22-4.48,2.22-2.34,3.32-5.14,3.32-8.4,0-4.11-1.86-7.54-5.58-10.29-3.47-2.54-7.38-3.8-11.73-3.8h-19.95c-1.26,0-2.35.42-3.27,1.27-.92.85-1.38,1.88-1.38,3.08l.06,42.69h13.67v-41.36h5.09c1.3,0,2.5.21,3.61.63,1.11.42,2.05,1.02,2.82,1.79.78.76,1.38,1.68,1.82,2.75.44,1.07.66,2.23.66,3.48,0,3.47-1.11,5.86-3.33,7.2-1.8,1.05-4.58,1.57-8.34,1.57h-1.51l12.11,23.95h15.5l-11.79-20.07Zm-48.7,0c3.39-.85,6.13-2.34,8.22-4.48,2.22-2.34,3.32-5.14,3.32-8.4,0-4.11-1.86-7.54-5.58-10.29-3.47-2.54-7.39-3.8-11.73-3.8h-19.96c-1.26,0-2.34.42-3.26,1.27-.92.85-1.38,1.88-1.38,3.08l.07,42.69h13.68v-41.36h5.08c1.29,0,2.5.21,3.61.63,1.11.42,2.05,1.02,2.82,1.79.78.76,1.38,1.68,1.82,2.75.44,1.07.66,2.23.66,3.48,0,3.47-1.11,5.86-3.33,7.2-1.8,1.05-4.58,1.57-8.34,1.57h-1.51l12.11,23.95h15.5l-11.79-20.07Zm-24.12-43.97h3.56v-25.36h-2.05v23.34h-2.21v-23.34h-2.05v21.32c0,2.71.93,4.04,2.75,4.04m-19.45-12.01h2.21v12.01h2.05v-10.98c0-.65-.04-1.07-.15-1.3-.12-.23-.39-.5-.81-.76.43-.27.7-.54.81-.76.12-.23.15-.65.15-1.3v-6.25c0-1.41-.23-2.4-.66-3.05s-1.12-.95-2.09-.95h-3.56v25.36h2.05v-12.01Zm0-11.36h2.21v9.34h-2.21v-9.34Zm-17.59,23.49c1.01,0,1.78-.34,2.32-1.03.54-.65.81-1.64.81-2.9v-10.22h-2.75v2.02h.7v9.99h-2.13v-21.36h2.13v6.9h2.05v-5.11c0-2.59-1.05-3.89-3.1-3.89s-3.14,1.3-3.14,3.89v17.77c0,1.26.27,2.21.81,2.9.54.69,1.32,1.03,2.29,1.03m55.04-12.13h1.51c1.82,0,2.75-1.33,2.75-4.04v-5.3c0-1.41-.23-2.4-.66-3.05-.43-.65-1.12-.95-2.09-.95h-3.56v25.36h2.05v-12.01Zm0-11.36h2.21v9.34h-2.21v-9.34Zm19.56-2.1c-2.09,0-3.14,1.3-3.14,3.89v17.77c0,1.26.27,2.21.81,2.9.54.69,1.32,1.03,2.29,1.03s1.78-.34,2.32-1.03c.54-.65.81-1.64.81-2.9v-17.77c0-2.59-1.05-3.89-3.1-3.89m1.05,23.45h-2.13v-21.36h2.13v21.36Zm-91.7,84.82h-3.56v25.36h2.05v-23.38h2.21v23.38h2.05v-21.36c0-1.41-.23-2.4-.66-3.05-.43-.65-1.12-.95-2.09-.95m106.09-.11c-2.09,0-3.14,1.3-3.14,3.89v21.59h2.05v-12.01h2.21v12.01h2.05v-21.59c0-1.26-.27-2.21-.81-2.9-.58-.65-1.36-.99-2.36-.99m1.12,11.44h-2.21v-9.34h2.21v9.34Zm-37.34,14.04h2.05v-25.36h-2.05v25.36Zm17.59-25.48c-2.09,0-3.14,1.3-3.14,3.89v17.77c0,1.26.27,2.21.81,2.9.54.69,1.32,1.03,2.28,1.03s1.78-.34,2.33-1.03c.54-.65.81-1.64.81-2.9v-5.26h-2.05v7.06h-2.13v-21.36h2.13v6.9h2.05v-5.11c0-2.59-1.05-3.89-3.1-3.89m-35.37,2.1h1.94v23.38h2.05v-23.38h1.9v-1.98h-5.89v1.98Zm-13.94,21.36h-2.21v-23.34h-2.05v21.32c0,2.71.93,4.04,2.75,4.04h3.56v-25.36h-2.05v23.34Zm-19.83-23.45c-2.09,0-3.14,1.3-3.14,3.89v21.59h2.05v-12.01h2.21v12.01h2.05v-21.59c0-1.26-.27-2.21-.81-2.9-.58-.65-1.36-.99-2.36-.99m1.12,11.44h-2.21v-9.34h2.21v9.34Zm1.24-16.7h-1.78l-1.24,4.04h1.43l1.59-4.04Z"/>
        <path class="cls-1" d="m1015.88,235.25c0,26.88-21.79,48.68-48.68,48.68s-48.68-21.79-48.68-48.68,21.79-48.68,48.68-48.68,48.68,21.79,48.68,48.68"/>
        <circle class="cls-9" cx="967.2" cy="235.25" r="48.68" transform="translate(-8.32 37.29) rotate(-2.2)"/>
      </g>
      <g class="cls-6">
        <rect class="cls-12" x="928.47" y="196.36" width="77.73" height="57.6"/>
      </g>
      <g class="cls-5">
        <path class="cls-1" d="m980.73,214.37v-1.91l-13.53-1.98-13.53,1.98v1.91h1.76l-16.61,24.81c.39,3.07,1.45,8.16,4.27,13.01,1.67-1.27,2.82-3.17,3.08-5.38h3.37c.47,4.01,3.9,7.03,7.98,7.03.24,0,.5,0,.76,0,3.55.06,6.9.11,7.25-7.44h3.39c.05.74.67,7.43,8.05,7.43h.02c4.09,0,7.52-3.03,7.99-7.03h3.37c.28,2.43,1.66,4.5,3.61,5.75,3.77-6.5,3.78-13.13,3.78-13.13l-16.78-25.06h1.76Z"/>
        <path class="cls-7" d="m980.73,214.37v-1.91l-13.53-1.98-13.53,1.98v1.91h1.76l-16.61,24.81c.39,3.07,1.45,8.16,4.27,13.01,1.67-1.27,2.82-3.17,3.08-5.38h3.37c.47,4.01,3.9,7.03,7.98,7.03.24,0,.5,0,.76,0,3.55.06,6.9.11,7.25-7.44h3.39c.05.74.67,7.43,8.05,7.43h.02c4.09,0,7.52-3.03,7.99-7.03h3.37c.28,2.43,1.66,4.5,3.61,5.75,3.77-6.5,3.78-13.13,3.78-13.13l-16.78-25.06h1.76Z"/>
        <path class="cls-13" d="m996.34,257.23c-.2,0-.38-.03-.58-.04-.02,0-.04,0-.06,0-2.1,0-4.04-.68-5.61-1.84-1.36-.89-2.54-2.04-3.42-3.42-2.04,3.19-5.63,5.28-9.67,5.29h-.03c-4.73,0-7.66-2.11-9.37-4.62-2.05,4.28-5.99,4.64-8.59,4.64-.28,0-.54,0-.78,0-.25,0-.48,0-.71,0-4.04,0-7.63-2.09-9.67-5.28-.85,1.34-1.99,2.47-3.31,3.35-1.59,1.2-3.57,1.91-5.71,1.91-.03,0-.06,0-.09,0-.19,0-.37.04-.56.04-.96,0-2.17-.18-3.45-.61,6.94,10.61,18.91,17.64,32.53,17.64s25.55-7,32.49-17.58c-1.09.35-2.23.55-3.42.55"/>
        <path class="cls-11" d="m968.85,263.35v-9.24c-.47-.47-.89-.97-1.24-1.49-.53,1.11-1.19,1.95-1.92,2.59v8.14c-5.36-.31-10.42-2.14-14.73-5.4l-1.91,2.52c5.28,3.99,11.58,6.1,18.22,6.1s12.93-2.11,18.21-6.1l-1.91-2.52c-4.31,3.25-9.37,5.09-14.73,5.4m-3.16-16.94h3.16v-28.67h7.84l-1.96-3.47h-5.88v-3.79c3.19-.72,5.57-3.57,5.57-6.98,0-3.95-3.21-7.16-7.16-7.16s-7.16,3.21-7.16,7.16c0,3.4,2.39,6.25,5.58,6.98v3.79h-6.23l-1.78,3.47h8.01v28.67Zm-2.41-42.91c0-2.2,1.79-3.99,3.99-3.99s3.99,1.79,3.99,3.99-1.79,3.99-3.99,3.99-3.99-1.79-3.99-3.99m17.82,33.32h3.16v-3.86l9.89,4.37c-.18,4.72-1.65,9.4-4.17,13.42.66.84,1.49,1.54,2.43,2.06,3.17-4.88,4.93-10.7,4.93-16.5v-1.03l-16.24-7.18v8.71Zm-31.01,0h3.16v-8.71l-16.24,7.18v1.03c0,5.83,1.77,11.68,4.97,16.57.95-.5,1.79-1.19,2.46-2.01-2.57-4.04-4.06-8.77-4.25-13.54l9.89-4.37v3.86Zm81.39,17.92c-2.35-.93-4.93-.13-6.41,1.76l-10.64-4.2c4.15-11.54,3.94-23.99-.59-35.39l10.49-4.56c1.55,1.84,4.15,2.55,6.47,1.54,2.83-1.23,4.12-4.51,2.9-7.33-1.23-2.82-4.51-4.12-7.33-2.9-2.32,1.01-3.58,3.4-3.29,5.78l-10.49,4.55c-5.23-11.1-14.18-19.75-25.45-24.6l4.2-10.64c2.39.21,4.74-1.13,5.67-3.48,1.13-2.86-.28-6.1-3.14-7.23-2.86-1.13-6.1.27-7.23,3.14-.93,2.35-.13,4.93,1.76,6.41l-4.2,10.64c-11.55-4.15-23.99-3.94-35.39.59l-4.55-10.49c1.84-1.55,2.55-4.15,1.54-6.47-1.23-2.82-4.51-4.12-7.33-2.89-2.82,1.23-4.12,4.51-2.89,7.33,1.01,2.32,3.39,3.58,5.78,3.29l4.56,10.5c-11.1,5.23-19.75,14.18-24.61,25.45l-10.64-4.2c.21-2.39-1.13-4.74-3.48-5.67-2.86-1.13-6.1.27-7.23,3.14s.27,6.1,3.14,7.23c2.35.93,4.93.13,6.41-1.76l10.64,4.2c-4.15,11.54-3.94,23.99.59,35.39l-10.5,4.56c-1.54-1.84-4.15-2.55-6.47-1.54-2.82,1.22-4.12,4.51-2.89,7.33,1.23,2.82,4.51,4.12,7.33,2.9,2.32-1.01,3.58-3.4,3.29-5.78l10.5-4.55c5.23,11.1,14.18,19.75,25.44,24.6l-4.2,10.64c-2.39-.21-4.74,1.13-5.67,3.48-1.13,2.86.28,6.1,3.14,7.23,2.86,1.13,6.1-.27,7.23-3.14.93-2.35.13-4.93-1.76-6.41l.45-1.13h0l3.75-9.51c5.51,1.98,11.22,2.98,16.92,2.98,6.26,0,12.51-1.21,18.47-3.58l4.56,10.5c-1.84,1.55-2.55,4.15-1.55,6.47,1.23,2.82,4.51,4.12,7.33,2.89,2.83-1.23,4.12-4.51,2.89-7.33-1.01-2.32-3.4-3.58-5.78-3.29l-.49-1.12-4.07-9.38c11.1-5.23,19.75-14.18,24.6-25.44l10.64,4.2c-.21,2.39,1.13,4.74,3.48,5.67,2.86,1.13,6.1-.27,7.23-3.14,1.13-2.86-.28-6.1-3.14-7.23m-20-3.6l-4.18-1.65c-.43,1.01-.96,1.94-1.58,2.78l4.6,1.82c-4.54,10.48-12.6,18.81-22.92,23.7l-3.22-7.41c-.95.46-1.92.88-2.9,1.26l3.22,7.41c-10.62,4.2-22.21,4.39-32.97.55l2.97-7.51c-1-.35-1.98-.74-2.94-1.17l-2.97,7.52c-10.48-4.54-18.81-12.6-23.7-22.92l4.88-2.12c-.68-.74-1.31-1.63-1.84-2.65l-4.3,1.87c-4.2-10.62-4.4-22.21-.55-32.97l7.51,2.97c.34-1,.72-1.99,1.14-2.95l-7.5-2.96c4.68-10.79,12.99-18.98,22.93-23.69l3.16,7.27c.95-.46,1.91-.88,2.9-1.26l-3.15-7.26c5.45-2.15,11.31-3.3,17.27-3.3,5.22,0,10.52.89,15.69,2.73l-2.89,7.33c1,.35,1.98.74,2.94,1.16l2.89-7.33c10.48,4.54,18.81,12.6,23.7,22.92l-7.27,3.15c.46.95.87,1.92,1.24,2.91l7.28-3.16c4.2,10.62,4.4,22.21.55,32.97"/>
      </g>
      <g>
        <path class="cls-11" d="m829.52,208.75h5.43c1.48,0,2.54.47,3.19,1.48.65,1,1,2.54,1,4.73v9.69c0,1-.06,1.65-.24,2.01-.18.35-.59.77-1.24,1.18.65.41,1.06.83,1.24,1.18.18.35.24,1,.24,2.01v10.75c0,2.19-.35,3.72-1,4.73-.65,1-1.71,1.54-3.19,1.54h-5.43v-39.28Zm6.5,3.07h-3.37v14.47h3.37v-14.47Zm0,17.6h-3.37v15.48h3.37v-15.48Z"/>
        <path class="cls-11" d="m854.98,257.19c0,2.95-1.48,4.43-4.49,4.43s-4.49-1.48-4.49-4.43v-5.91h2.95v7.38h3.07v-10.63h-2.19c-1.42,0-2.42-.3-2.95-.89-.59-.53-.89-1.54-.89-3.01v-21.74h2.89v22.86h3.13v-22.86h2.95v34.79Z"/>
      </g>
    </g>
  </g>
</svg>