<?xml version="1.0" encoding="UTF-8"?>
<svg id="Layer_2" data-name="Layer 2" xmlns="http://www.w3.org/2000/svg" xmlns:xlink="http://www.w3.org/1999/xlink" viewBox="0 0 1398.86 398.54">
  <defs>
    <style>
      .cls-1 {
        fill: #fff;
      }

      .cls-1, .cls-2 {
        fill-rule: evenodd;
      }

      .cls-2, .cls-3 {
        fill: #191649;
      }

      .cls-4 {
        clip-path: url(#clippath);
      }

      .cls-5 {
        fill: none;
      }
    </style>
    <clipPath id="clippath">
      <rect class="cls-5" width="1398.86" height="398.54"/>
    </clipPath>
  </defs>
  <g id="Layer_1-2" data-name="Layer 1">
    <g class="cls-4">
      <path class="cls-2" d="m129.77,227.67c-.28-1.18.01-1.54.41-1.52.02,0,2.41.75,2.63.82,3.13.88,7.26,1.92,5.25-5.69-1.66-6.3-2.13-9.99-2.91-16.46-.85-7.05-1.31-16.95-2.58-23.47-2.99-1.58-4.24-1.12-5.97,1.24-3.18,4.35-4.16,4.84-8.62,11.31-4.62,6.69-16.07,24.33-12.09,32.97.61,1.32.92,1.78,2.4,1.5,2.17-.4,3.63-2.06,5.07-3.13.62,26.9,21.68,48.35,39.09,66.39.36.77,1.08,5.46,1.37,6.8.65,2.97.8,11.8,4.99,11.34,2.29-.99,6.57-4.44,8.78-6.06,4.64-3.4,3.96-4.07,11.11-4.2,35.47-.65,40.38-1.63,70.48-19.99.48,3.3.07,4.63,3.03,6.36,2.84.19,4.11-1.25,5.43-2.84l3.07-5.62c1.77-4.03,4-7.34,5.17-11.67,1.21-4.45,6-24.12,4.93-28.18-1.18-2.51-3.74-2.67-6.05-1.01-3.05,2.2-6.27,5.64-9.54,7.83-1.06.72-1.24,1.06-2.17,1.91l-4.77,3.87c-3.8,3.54-8.44,6.43-12.78,9.18-2.56,1.63-3.77,1.39-4.46,4.96,1.43,3.35,3.68,3.27,6.7,4.68-1.51,1.38-1.31,1-3.15,1.71-1.74.66-2.31,1.28-3.73,1.84-9.89,3.91-17.5,5.16-27.83,1.09-5.82-2.29-10.28-4.39-11.07-11.39-.77-6.77,1.96-13.18,4.42-18.02,3.2-8.12,6.4-15.93,9.67-24,.99-2.45,2.04-5.57,3.06-8.21l8.16-19.9c1.09-2.71,3.87-10.29,4.82-11.83,1.9.21,3.08.99,4.78,1.69,1.83.76,3.31.73,5.19,1.4,3.07,1.1,18.73,5.13,21.47,4.62,2.9-.54,4.49-5.78,5.45-8.25,3.11-7.97,3.31-6.77-4.43-11.67-1.48-.94-3.1-2.13-4.42-2.74-2.69-1.24-7.54-4.36-10.71-6.01-2.19-1.14-4.59-2.1-6.83-3.21l1.34-4.65c10.49.21,14.27-1.62,22.2-7.24,3.9-2.76,7.82-9.46,9.36-14.12,3.1-11.52-1-22.53-8.66-29.14-27.74-23.92-65.26,8.79-43.86,39.75,1.68,1.86,1.82,1.75,3.59,3.5-.55,1.74-1.51,3.21-2.24,4.74-5.98-2.05-27.82-9.08-34.22-7.27-.94,3.1-5.48,13.02-5.37,13.89.03.25.07.48.12.67.33,1.41,7.64,5.54,9.38,6.6,3.48,2.14,8.45,4.79,12.11,6.77l7.88,3.83c-10.44,23.3-20.13,54.25-33.8,74.89-.46.69-.73,1.25-1.25,1.82-.56.61-.09.13-.81.72-.08.07-.21.15-.3.22-6.19,4.88-10.47,4.33-17.58,1.59-7.46-2.87-8.54-4.75-13.4-9.54-2.38-2.35-6.51-11.03-7.34-15.53m102.71-122.12c6.02-2.37,15.88,1.03,19.12,8.36,2.85,6.46,2.5,8.73-.91,15.19-3.64,6.9-16.68,12.93-26.54,2.04-4.59-5.07-4.08-14.13-1.12-18.48,2.3-3.38,5.71-5.63,9.46-7.11"/>
      <path class="cls-1" d="m232.47,105.55c-3.75,1.48-7.16,3.74-9.46,7.11-2.96,4.34-3.47,13.4,1.12,18.48,9.86,10.89,22.9,4.87,26.54-2.04,3.41-6.46,3.77-8.73.91-15.19-3.24-7.33-13.1-10.73-19.12-8.36"/>
      <path class="cls-2" d="m595.7,93.88v69.92c0,1.99,1.31,1.53,4.59,1.53,1.18,0,1.53-.36,1.53-1.53v-34.71h43.89v34.71c0,2.08,1.6,1.53,5.61,1.53v-72.98h-5.61v31.13h-43.89v-29.6c0-1.98-1.31-1.53-4.59-1.53-1.18,0-1.53.35-1.53,1.53m66.86,71.45h5.61c.35-1.49,1.46-4.15,2.04-5.61,1.11-2.8,5.94-15.63,6.12-17.86h35.73c1.02,4.39,7.86,19.98,8.68,23.48,8.79,0,7.74,2.5.87-14.65l-19.84-48.55c-1.17-2.9-2.57-7.05-4-9.77h-7.66l-20.85,54.17c-1.32,3.27-6.65,16.32-6.71,18.81m31.64-66.86c.51,2.19.99,2.84,1.83,4.81l14,33.98h-31.64l7.58-19.47c1.37-3.42,2.47-6.42,3.86-9.92.86-2.15,2.84-8.28,4.38-9.4m-322.05,66.86h5.61c.69-1.43,1.51-3.91,2.1-5.56l6.57-17.92h35.22l9.19,23.48h6.12c-.19-2.25-2.69-7.26-3.51-9.25l-7.36-18.16c-1.31-3.28-2.41-5.75-3.72-9.04l-15.02-36.53h-7.66l-20.78,54.25c-1.26,3.15-6.58,16.28-6.78,18.74m31.13-67.37l16.33,39.3h-31.64l15.31-39.3Zm115.34,27.05c0,11.05.83,22.82,8.54,30.76,8.71,8.97,14.83,10.58,27.19,10.58,6.45,0,14.15-3.24,17.49-6.5,5.08-4.94,6.69-7.5,8.54-15.45h-6.12c-1.95,23.46-49.51,23.73-49.51-11.74,0-10.39-.31-19.4,7.02-27.68,8.18-9.25,24.41-10.6,34.75-3.88,3.1,2.02,7.36,6.58,7.74,11.14h6.12c-1.75-3.65-1.93-5.46-5.49-10.91-.77-1.17-2.1-2.2-3.57-3.51-3.92-3.49-9.93-5.89-16.52-6.51h-6.67c-10.59.99-21.39,6.83-26.74,20.11-1.36,3.36-2.76,9.13-2.76,13.58m-195.98,38.79c0,1.18.35,1.53,1.53,1.53h41.34v-6.12h-37.26v-66.86h-5.61v71.45Zm124.53-69.92v69.92c0,1.99,1.31,1.53,4.59,1.53,2.36,0,1.54-4.07,1.53-6.63v-58.18c1.3.95,9.65,13.97,11.23,16.33,3.69,5.54,7.23,10.85,11.02,16.54l19.18,28.79c2.44,3.78,1.82,3.16,9.09,3.16v-72.98h-5.61v64.82c-1.77-1.29-24.37-36.3-27.25-40.62l-13.68-20.52c-2.85-4.32-1.44-3.67-8.58-3.67-1.18,0-1.53.35-1.53,1.53"/>
      <path class="cls-2" d="m451.78,201.57l9.81-14.17,8.7-9.17c8.24-6.75,12.49,2.21-1.53,15.82-2.94,2.86-11.44,7.52-16.98,7.52m211.3,54.1c-2.27-9.76,2.14-22.97,15.31-22.97,8.35,0,16.33,7.84,16.33,16.33,0,8.92-.93,16.61-5.1,24.5-2.5-.58-5.18-.83-7.6-1.58-2.4-.75-4.72-1.92-7.2-2.5.47-1.77,2.08-3.42,3.16-5,3.06-4.48,8.07-10.43,8.07-16.43,0-8.25-8.95-6.69-15.18-.38-1.39,1.41-2.43,2.42-3.83,3.82-1.49,1.48-2.28,3.1-3.95,4.22m-75.03,43.38c-6.75,0,1.48-19.33,2.11-20.86.51-1.26,1.01-2.09,1.61-3.49.69-1.59.93-2.37,1.71-3.9,4.59-8.98,17.73-28.4,26.72-28.4,3.01,0,4.59,2.76,4.59,5.61,0,1.51-2,6.79-2.55,8.17-5.72,14.33-.61,7.97-10.93,22.24-4.03,5.57-15.2,20.63-23.26,20.63m-251.61,0c-10.88,0,6.16-31.4,8.32-35.06,2.96-4.99,15.63-21.59,21.79-21.59,2.83,0,4.27-.18,5.21,2.96,1.55,5.2,1.22,9.12-1.47,13.54-1.48,2.43-2.61,4.19-3.91,6.81-1.18,2.39-2.14,4.72-3.36,6.84-2.09,3.64-6.11,8.78-8.78,12.15-1.01,1.27-1.23,1.54-2.36,2.75-3.41,3.67-10.19,11.61-15.44,11.61m401.07-44.32l2.81-4.5c.91-1.68,1.67-2.83,2.67-4.48,2.85-4.73,8.92-17.13-1.82-17.13-10.02,0-19.33,23.22-22.52,32.09-1.1,3.05-3.73,10.86-4.02,14.36-4.24,0-7.08.51-11.74.51.42-5.09,11.5-27.13-3.95-40.96-10.78-9.65-33.99-9.54-41.99,6.75-3.43,6.99-3.12,15.25,1.03,21.45-3.73,7.04-6.8,12.44-11.66,18.96-1.98,2.66-18.45,21.89-18.45,11.15,0-20.14,18.5-55.59,27.78-71.23l3.87-6.85c4.86-9.39,10.68-18.07,16.53-26.85,3.14-4.7,6.94-10.68,6.94-17.05s-9.06-7.97-21.22,8.89c-11.92,16.53-22.09,34.98-30.67,53.54-.98,2.11-1.05,3.71-2.72,4.94-1.09-4.09-7.6-7.66-11.74-7.66h-2.55c-11.46,0-24.3,13.82-29.9,23.18-2.34,3.91-3.91,7.76-6.23,11.63-7.05,11.75-19.43,34.75-30.72,40.73-6.31-11.93,16.33-38.9,16.33-51.04,0-4.33-2.54-7.15-6.12-7.15-1.85,0-1.79.61-3.57,1.02,0-4.58.44-8.78-2.12-12.68-8-12.19-28.45-3.77-39.22,10.63-1.69,2.26-1.45,3.07-4.59,3.07-8.06,0-13.24-2.64-14.11-10.41-.19-1.75,1.56-10.57-4.83-10.88-3.75-.19-6.07,3.75-6.07,7.51,0,4.62,2.04,9.92,2.04,16.33,0,8.31-6.92,19.94-10.23,25.5-1.9,3.19-7.23,9.55-10.07,12.39-1,1-1.4.98-2.55,2.04-2.19,2.04-2.47,2.5-5.23,3.96l-.51-5.1c0-14.41,6.31-25.95,12.42-38.1,3.25-6.46,16.72-24.67,1.87-24.67-4.97,0-10.02,6.97-12.08,10.88-2.77,5.26-5.5,10.19-7.68,15.8-1.56,4.01-3.58,6.28-5.96,9.86-4.12,6.17-8.23,12.45-13.46,17.68-5.04,5.03-10.41,13.15-18.49,13.15-3.96-16.99,17.72-57.2,25.69-71.79,9.96-18.23,5.34-13.3,17.59-16.6,11.1-2.99,20.6-10.65,25.45-20.99,3.04-6.49,4.24-21.27-6.47-21.27h-2.55c-7.69,0-19.09,11.84-23.35,16.45-1.02,1.1-1.08,1.47-2.04,2.55l-6.9,8.41c-3.03,4.06-5.76,7.74-8.53,11.89-7.39,0-14.03.63-21.97.53l-10.7-.53c-9.97,0-20.91.23-30.04,3.64-18.04,6.74-11.79,19.32-5.68,19.32s9.96-4.17,14.14-7.3c1.49-1.12,2.77-1.94,4.23-2.92,15.08-10.07,28.62-6.63,45.94-6.63-.69,2.59-5.44,9.36-6.81,12.07-5.38,10.6-10.3,21.52-14.04,32.91-2.3,6.99-16.11,29.02-21.07,35.59-4.85,6.42-5.61,7.45-11.27,12.71-1.2,1.12-1.4,1.48-3.46,1.65-3.58-6.77,4.32-21.94,6.98-27.22,3.39-6.75,9.36-16.03,9.36-23.82,0-6.75-5.34-8.02-9.7-5.1l.51-5.1c0-7.01-5.5-13.78-12.25-13.78-10.18,0-15.44,3.18-22.39,8.75-.81.65-.85.51-1.74,1.33-2.75,2.52-6.33,7.33-8.45,10.44-10.49,15.38-7.02,20.85-13.36,23.9l-8.68,4.08c0-13.24-3.57-22.59-3.57-35.22,0-20.31,15.62-17.7,7.33-3.39-1.01,1.75-4.78,4.36-4.78,5.94,0,8.8,12.76-2.86,12.76-10.72v-5.1c0-7.7-14.58-13.49-24.61,2.44-7.35,11.69-4.7,23.35-3.09,35.97.68,5.36.65,10.92.65,16.7-9.1.76-18.88,7.06-18.88,16.84,0,4.14.74,8.38,3.2,11.1,2.28,2.53,6.79,3.71,10.59,3.71,15.21,0,20.92-19.08,20.92-32.15,3.09-.72,6.95-3.65,9.7-5.1-5.19,22.3,9.97,31.76,25.89,20.28,2.67-1.92,5.34-3.87,7.36-6.42,1.12-1.42.9-1.57,2.48-2.62l-.51,7.14c0,6.28,3.51,14.8,9.19,14.8,9.79,0,15.24-6.44,20.77-12.91,1.17-1.37,2.24-2.92,3.29-4.36,1.83-2.5,8.09-12.74,9.62-13.86,0,6.58-3.31,19.9,11.74,19.9,11.6,0,19.03-9.24,26.16-16.71,1.88-1.97,4.81-6.54,6.51-7.78l-.51,9.19c0,12.89,8.83,19.75,19.1,12.97,6.71-4.43,11.5-11.06,16.26-17.42,6.16-8.23,10.95-19.22,13.64-30.77,4.65,3.11,6.03,4.08,13.78,4.08l-6.19,14.23c-2.7,8.11-6.47,22.85-.1,30.85,1.08,1.35,1.98,2.22,3.55,3.09,10.66,5.85,23.69-5.93,29.79-12.95-.13,5.79-2.8,18.01,6.62,21.97,5.11,2.15,11.3-1.41,14.67-4.25,10.98-9.26,12.24-15.6,18.52-22.82,0,6.38-.01,9.11,2.38,13.44,6.29,11.38,20.84,4.01,27.81-1.62,4.39-3.55,10.66-12.62,11.66-13.35,0,4.81-.29,9.05,1.21,12.58,3.27,7.71,16.07,6.39,23.6.49,3.17-2.49,5.81-6.42,8.88-8.47-1.15,4.93-.21,12.51,3.25,15.12,7.15,5.39,17.12,3.96,24.32.2,7.46-3.9,21.61-16.01,23.47-24l13.78-.51c0,5.74-.67,11.47,1.58,16.8,2.66,6.31,13.36,8.3,11.79-.52-1.91-10.72,4.18-21.52,9.69-29.97,1.06-1.63,2.34-3.21,3.47-4.69,3.51-4.59,7.5-8.76,11.61-12.89,2.47-2.48,16.2-12.95,8.91-2.31-2.41,3.52-4.95,10.1,1.94,10.1,3.33,0,5.54-3.97,6.94-6.33,5.35-9.07,3.67-17.84-5.28-17.04-9.52.85-22.12,14.72-26.16,22.35l-.6-.43Zm-226.01,44.32c-2.56,0-2.55-1.62-2.55-4.08,0-15.64,22.13-52.57,34.71-52.57,5.52,0,4.59,7.41,4.59,11.74,0,2.28-5.1,9.35-6.98,13.44-4.53,9.89-19.73,31.48-29.77,31.48m154.13,4.08c-4.7,0-4.08-2.76-4.08-5.1,0-6.23,7.45-19.87,10.21-23.99,4.07.95,9.52,4.08,15.31,4.08-.89,3.83-9.79,16.41-14.59,20.12-1.27.99-5.3,4.89-6.85,4.89m-378.19,5.1c-3.05,0-3.06-4.36-3.06-6.63,0-4.16,6.32-9.09,10.72-9.19-.93,1.94-1.33,6.84-2.21,9.53-.88,2.68-2.22,6.3-5.44,6.3"/>
      <path class="cls-3" d="m830.23,213.84h5.43c1.48,0,2.54.47,3.19,1.48.65,1,1,2.54,1,4.73v9.69c0,1-.06,1.65-.24,2.01-.18.35-.59.77-1.24,1.18.65.41,1.06.83,1.24,1.18.18.35.24,1,.24,2.01v10.75c0,2.19-.35,3.72-1,4.73-.65,1-1.71,1.54-3.19,1.54h-5.43v-39.28Zm6.5,3.07h-3.37v14.47h3.37v-14.47Zm0,17.6h-3.37v15.48h3.37v-15.48Z"/>
      <path class="cls-3" d="m855.69,262.27c0,2.95-1.48,4.43-4.49,4.43s-4.49-1.48-4.49-4.43v-5.91h2.95v7.38h3.07v-10.63h-2.19c-1.42,0-2.42-.3-2.95-.89-.59-.53-.89-1.54-.89-3.01v-21.74h2.89v22.86h3.13v-22.86h2.95v34.79Z"/>
      <path class="cls-3" d="m1172.41,167.88c-2.1,0-3.15,1.3-3.15,3.91v17.86c0,1.26.27,2.22.82,2.91.55.69,1.32,1.04,2.3,1.04s1.79-.35,2.34-1.04c.55-.65.82-1.65.82-2.91v-17.86c0-2.61-1.05-3.91-3.11-3.91m1.05,23.57h-2.14v-21.46h2.14v21.46Zm14.46,85.12c-2.1,0-3.15,1.3-3.15,3.91v21.69h2.06v-12.07h2.22v12.07h2.06v-21.69c0-1.26-.27-2.22-.82-2.91-.59-.65-1.36-1-2.38-1m1.13,11.5h-2.22v-9.39h2.22v9.39Zm-69.41,12.07h-2.22v-23.46h-2.06v21.42c0,2.72.93,4.06,2.77,4.06h3.58v-25.49h-2.06v23.46Zm15.01-106.66h3.58v-25.49h-2.06v23.46h-2.22v-23.46h-2.06v21.42c0,2.72.93,4.06,2.76,4.06m-19.54-12.07h2.22v12.07h2.06v-11.04c0-.65-.04-1.07-.16-1.3-.12-.23-.39-.5-.82-.77.43-.27.7-.54.82-.77.12-.23.16-.65.16-1.3v-6.29c0-1.42-.23-2.41-.66-3.07-.43-.65-1.13-.96-2.1-.96h-3.58v25.49h2.06v-12.07Zm0-11.42h2.22v9.39h-2.22v-9.39Zm37.64,11.42h1.52c1.83,0,2.77-1.34,2.77-4.06v-5.33c0-1.42-.23-2.41-.66-3.07-.43-.65-1.13-.96-2.1-.96h-3.58v25.49h2.06v-12.07Zm0-11.42h2.22v9.39h-2.22v-9.39Zm55.08,67.69c3.4-.85,6.16-2.35,8.26-4.5,2.23-2.35,3.34-5.17,3.34-8.45,0-4.13-1.87-7.58-5.61-10.34-3.49-2.55-7.42-3.82-11.79-3.82h-20.05c-1.26,0-2.36.43-3.28,1.27-.92.85-1.39,1.88-1.39,3.1l.06,42.91h13.74v-41.57h5.11c1.3,0,2.51.21,3.62.63,1.11.43,2.06,1.02,2.84,1.79.78.77,1.39,1.69,1.83,2.77.44,1.07.66,2.24.66,3.49,0,3.49-1.11,5.89-3.34,7.23-1.81,1.06-4.6,1.58-8.38,1.58h-1.52l12.17,24.07h15.57l-11.85-20.17Zm-110.4-44.08c1.01,0,1.79-.35,2.34-1.04.55-.65.82-1.65.82-2.91v-10.27h-2.76v2.03h.7v10.04h-2.14v-21.46h2.14v6.94h2.06v-5.13c0-2.61-1.05-3.91-3.11-3.91s-3.15,1.3-3.15,3.91v17.86c0,1.26.27,2.22.82,2.91.55.69,1.32,1.04,2.3,1.04m71.76,82.98c-2.1,0-3.15,1.3-3.15,3.91v17.86c0,1.26.27,2.22.82,2.91.54.69,1.32,1.03,2.3,1.03s1.79-.34,2.34-1.03c.54-.65.82-1.65.82-2.91v-5.29h-2.06v7.09h-2.14v-21.46h2.14v6.94h2.06v-5.14c0-2.61-1.05-3.91-3.11-3.91m-87.9.11h-3.58v25.49h2.06v-23.49h2.22v23.49h2.06v-21.46c0-1.42-.23-2.42-.66-3.07-.43-.65-1.13-.96-2.1-.96m38.72-39.84c-1.52-2.35-3.68-4-6.08-5.37-3.17-1.82-6.39-3.54-9.52-5.41-1.27-.76-2.56-1.63-3.5-2.73-2.76-3.21-.93-7.78,3.27-8.37,5.63-.79,9.65.21,13.74,4,.27.25,2.24,1.32,2.55-3.62.16-2.68-1.3-5.68-12.04-5.68-4.25,0-8.42.17-12.37,1.83-4.23,1.78-7.27,4.65-8.04,9.3-1.03,6.22,1.4,11.03,6.62,14.45,3.36,2.2,6.92,4.1,10.37,6.17.77.46,1.55.94,2.28,1.46.5.4.97.82,1.38,1.29,2.76,3.21.93,7.78-3.27,8.37-5.63.79-9.65-.21-13.74-4-.27-.25-2.24-1.32-2.55,3.62-.16,2.68,1.3,5.68,12.04,5.68,4.25,0,8.42-.17,12.37-1.83,4.24-1.78,7.27-4.65,8.04-9.3.21-1.26.27-2.46.2-3.61h.03c0-2.2-.57-4.38-1.78-6.26m-17.93,34.43h-1.79l-1.25,4.06h1.44l1.6-4.06Zm-2.38,5.29c-2.1,0-3.15,1.3-3.15,3.91v21.69h2.06v-12.07h2.22v12.07h2.06v-21.69c0-1.26-.27-2.22-.82-2.91-.58-.65-1.36-1-2.38-1m1.13,11.5h-2.22v-9.39h2.22v9.39Zm-19.61-32.2c-.02-1.15,0-2.3,0-3.45,0-1.74-.26-1.78-1.97-1.68-3.31.19-6.65.33-9.95.17-2.58-.13-3.94-1.53-4.24-4.06-.32-2.64-.5-5.31-.5-7.97,0-8.99.11-17.97.23-26.96.02-1.16-.31-1.61-1.55-1.59-3.75.06-7.23.06-10.99,0-1.17-.02-1.49.4-1.48,1.52.05,6.03.03,36.06.03,36.06,0,0-.3,8.89,8.14,8.89,7.08.14,14.18.05,21.26.08.78,0,1.04-.31,1.02-1.02m77.66-18.2c3.41-.85,6.16-2.35,8.26-4.5,2.23-2.35,3.34-5.17,3.34-8.45,0-4.13-1.87-7.58-5.61-10.34-3.49-2.55-7.42-3.82-11.79-3.82h-20.06c-1.26,0-2.35.43-3.28,1.27-.92.85-1.39,1.88-1.39,3.1l.07,42.91h13.75v-41.57h5.11c1.3,0,2.51.21,3.63.63,1.11.43,2.06,1.02,2.84,1.79.78.77,1.39,1.69,1.83,2.77.44,1.07.67,2.24.67,3.49,0,3.49-1.12,5.89-3.35,7.23-1.81,1.06-4.6,1.58-8.39,1.58h-1.51l12.17,24.07h15.57l-11.85-20.17Zm-7.37,64.5h2.06v-25.49h-2.06v25.49Zm-17.87-23.49h1.95v23.49h2.06v-23.49h1.91v-1.99h-5.92v1.99Zm-101.97-24.2c-2.36-.93-4.96-.13-6.45,1.77l-10.7-4.22c4.17-11.61,3.96-24.13-.6-35.6l10.56-4.58c1.55,1.85,4.18,2.56,6.51,1.55,2.84-1.23,4.14-4.53,2.91-7.38-1.23-2.84-4.54-4.14-7.38-2.91-2.33,1.01-3.6,3.41-3.31,5.81l-10.56,4.58c-5.26-11.16-14.26-19.87-25.59-24.75l4.22-10.7c2.41.21,4.77-1.14,5.7-3.5,1.14-2.88-.28-6.14-3.16-7.27-2.88-1.14-6.14.28-7.27,3.16-.93,2.36-.13,4.96,1.77,6.45l-4.22,10.7c-11.61-4.17-24.13-3.96-35.6.6l-4.58-10.56c1.85-1.55,2.57-4.18,1.55-6.51-1.23-2.84-4.54-4.14-7.38-2.91-2.84,1.23-4.14,4.54-2.91,7.38,1.01,2.33,3.42,3.6,5.81,3.31l4.58,10.56c-11.16,5.26-19.86,14.26-24.75,25.59l-10.7-4.23c.21-2.41-1.14-4.77-3.5-5.7-2.88-1.14-6.14.28-7.27,3.16-1.14,2.88.28,6.14,3.16,7.28,2.36.93,4.96.13,6.45-1.77l10.71,4.22c-4.17,11.61-3.96,24.13.6,35.6l-10.56,4.58c-1.55-1.85-4.18-2.57-6.51-1.55-2.84,1.23-4.14,4.54-2.91,7.38,1.23,2.84,4.54,4.14,7.38,2.91,2.33-1.01,3.6-3.41,3.31-5.82l10.56-4.58c5.26,11.16,14.26,19.86,25.59,24.75l-4.22,10.71c-2.41-.21-4.77,1.14-5.7,3.5-1.14,2.88.28,6.14,3.16,7.27,2.88,1.14,6.14-.28,7.27-3.16.93-2.36.13-4.96-1.77-6.45l.45-1.14h0l3.77-9.56c5.54,1.99,11.28,3,17.02,3,6.29,0,12.58-1.21,18.58-3.6l4.58,10.56c-1.85,1.56-2.56,4.18-1.55,6.51,1.23,2.84,4.54,4.14,7.38,2.91,2.84-1.23,4.14-4.54,2.91-7.38-1.01-2.33-3.41-3.6-5.81-3.31l-.49-1.13-4.09-9.43c11.16-5.26,19.87-14.26,24.75-25.59l10.7,4.23c-.21,2.41,1.14,4.77,3.5,5.7,2.88,1.14,6.14-.28,7.27-3.16,1.14-2.88-.28-6.14-3.16-7.27m-45.78-62.76c10.54,4.57,18.92,12.67,23.84,23.05l-7.31,3.17c-4.02-8.37-10.93-15.08-19.44-18.85l2.91-7.37Zm7.62,41.45l-11.98-17.89h.52v-4.58l-1.22-.18-9.93-1.45c2.08-1.26,3.47-3.54,3.47-6.15,0-2.18-.98-4.13-2.51-5.45,18.55,2.33,32.96,18.19,32.96,37.36,0,4.76-.88,9.4-2.63,13.82-1.39,2.21-3.52,3.48-5.87,3.48-.84,0-1.67-.16-2.45-.46,2.44-4.78,3.07-9.36,3.23-11.44.21-1.42.32-2.86.32-4.29v-1.04l-3.92-1.73Zm-40.99-17.89l-12.03,17.97-3.74,1.65v1.04c0,1.83.17,3.65.51,5.46.12,1.38.59,2.98,1.28,4.73.56,1.57,1.25,3.11,2.06,4.57-.94.49-5.49,2.67-8.35-1.71-1.83-4.51-2.76-9.26-2.76-14.15,0-19.19,14.43-35.07,33.01-37.37-1.54,1.32-2.52,3.27-2.52,5.46,0,2.58,1.37,4.84,3.41,6.11l-10.18,1.49-1.22.18v4.58h.52Zm10.65-12.36c0-2.21,1.8-4.02,4.02-4.02s4.02,1.8,4.02,4.02-1.8,4.02-4.02,4.02-4.02-1.8-4.02-4.02m3.98-15.13c5.25,0,10.58.89,15.78,2.75l-2.91,7.37c-3.84-1.34-7.95-2.09-12.22-2.16-.2-.02-.4-.03-.61-.03s-.42.01-.62.03c-4.8.07-9.39,1.01-13.62,2.66l-3.17-7.3c5.49-2.17,11.38-3.32,17.37-3.32m-20.29,4.58l3.17,7.31c-8.32,4.06-14.97,10.99-18.69,19.49l-7.55-2.98c4.71-10.85,13.07-19.09,23.07-23.83m4.4,87.09l2.98-7.55c4.03,1.41,8.35,2.18,12.86,2.18,4.97,0,9.72-.93,14.09-2.63l3.23,7.44c-10.68,4.22-22.34,4.42-33.16.56m60.3-28.62l-4.21-1.66c-.44,1.01-.97,1.95-1.58,2.8l4.62,1.82c-4.57,10.54-12.67,18.92-23.05,23.84l-3.23-7.45c6.39-3.1,11.8-7.89,15.67-13.78-1.09.35-2.24.55-3.44.55-.2,0-.39-.03-.58-.04-.02,0-.04,0-.06,0-2.11,0-4.07-.69-5.65-1.85-1.37-.89-2.55-2.05-3.44-3.43-2.05,3.21-5.66,5.31-9.72,5.32h-.03c-3.77,0-6.39-1.33-8.18-3.13v9.08c5.39-.31,10.48-2.16,14.81-5.43l1.92,2.54c-5.31,4.01-11.65,6.13-18.32,6.13s-13.01-2.12-18.32-6.13l1.92-2.54c4.33,3.27,9.43,5.12,14.81,5.43v-7.99c-2.1,1.85-4.77,2.05-6.71,2.05-.28,0-.54,0-.79,0-.25,0-.49,0-.72,0-4.07,0-7.68-2.1-9.73-5.31-.86,1.35-2,2.48-3.33,3.36-1.6,1.2-3.59,1.92-5.74,1.92-.03,0-.06,0-.09,0-.19,0-.37.04-.56.04-.97,0-2.18-.18-3.47-.61,4.11,6.29,9.97,11.32,16.9,14.39l-2.98,7.55c-10.54-4.57-18.92-12.67-23.84-23.05l4.91-2.13c-.69-.75-1.31-1.63-1.85-2.66l-4.32,1.88c-4.22-10.68-4.42-22.34-.56-33.16l7.56,2.98c-1.36,3.98-2.11,8.24-2.11,12.68,0,5.25,1.04,10.25,2.91,14.82,3.3,6.16,10.8,4.57,13.24.93-.32-.56-.64-1.1-.96-1.63-2-3.68-3.15-7.82-3.32-11.99l9.95-4.4v3.88h3.18v-8.76l-10.16,4.49,12.26-18.32h-1.77v-1.92l12.17-1.78v3.6h-6.27l-1.79,3.49h8.06v28.84h3.18v-28.84h7.89l-1.97-3.49h-5.92v-3.56l11.86,1.73v1.92h-1.77l12.21,18.24-9.98-4.41v8.76h3.18v-3.88l9.95,4.4c-.18,4.75-1.66,9.46-4.19,13.49.54.69,1.2,1.28,1.93,1.76,0,.02-.02.03-.03.05,1.27.82,2.78,1.29,4.4,1.29,2.95,0,5.52-1.6,7.14-4.27,1.78-4.47,2.77-9.35,2.77-14.46s-.92-9.63-2.58-13.97l7.33-3.18c4.23,10.68,4.42,22.34.56,33.16"/>
    </g>
  </g>
</svg>