<svg xmlns="http://www.w3.org/2000/svg" width="20.02" height="20" viewBox="0 0 20.02 20">
  <g id="calender_edit" transform="translate(0 -0.247)">
    <path id="Path_51884" data-name="Path 51884" d="M12.364,82.473,1.348,93.489a.439.439,0,0,0-.114.2l-1.221,4.9a.434.434,0,0,0,.42.539.43.43,0,0,0,.1-.013l4.9-1.221a.433.433,0,0,0,.2-.114L16.657,86.766Zm0,0" transform="translate(0 -78.883)" fill="#ff9100"/>
    <path id="Path_51885" data-name="Path 51885" d="M340.123,2.087,338.9.861a2.22,2.22,0,0,0-3.067,0l-1.5,1.5,4.293,4.293,1.5-1.5a2.169,2.169,0,0,0,0-3.067Zm0,0" transform="translate(-320.737 0)" fill="#ff9100"/>
  </g>
</svg>
