<svg xmlns="http://www.w3.org/2000/svg" width="147.621" height="50" viewBox="0 0 147.621 50">
  <g id="logo_footer" transform="translate(-0.004 -0.02)">
    <g id="Group_38684" data-name="Group 38684" transform="translate(0.004 0.02)">
      <path id="Path_51219" data-name="Path 51219" d="M5.467,31.3c-.061-.26,0-.341.091-.336,0,0,.533.167.582.182.694.195,1.606.425,1.161-1.257a23.032,23.032,0,0,1-.643-3.639c-.188-1.559-.29-3.749-.571-5.191-.66-.349-.937-.248-1.32.275-.7.96-.92,1.068-1.908,2.5C1.839,25.315-.7,29.213.187,31.124c.133.292.2.393.531.332a2.785,2.785,0,0,0,1.121-.692c.138,5.946,4.794,10.691,8.646,14.681.08.171.239,1.208.3,1.5.144.656.178,2.608,1.1,2.507a14.724,14.724,0,0,0,1.942-1.341c1.026-.751.876-.9,2.458-.929,7.844-.142,8.929-.362,15.584-4.421.108.73.017,1.024.668,1.407a1.3,1.3,0,0,0,1.2-.628l.679-1.244a18.272,18.272,0,0,0,1.144-2.581c.269-.984,1.328-5.335,1.089-6.232-.26-.556-.827-.59-1.337-.224-.675.487-1.388,1.246-2.109,1.733a3.274,3.274,0,0,0-.48.423l-1.053.857a19.359,19.359,0,0,1-2.824,2.031c-.567.36-.833.309-.986,1.1.317.74.814.723,1.483,1.034-.332.3-.29.222-.7.379-.383.146-.512.283-.825.406a7.487,7.487,0,0,1-6.154.241c-1.286-.508-2.274-.971-2.45-2.519a7.2,7.2,0,0,1,.977-3.983c.707-1.8,1.415-3.524,2.137-5.308.22-.542.453-1.231.677-1.815l1.8-4.4c.241-.6.855-2.274,1.066-2.617a3.585,3.585,0,0,1,1.056.372c.4.167.732.163,1.147.311a23.733,23.733,0,0,0,4.747,1.022c.641-.121.994-1.278,1.206-1.826.688-1.762.732-1.5-.982-2.581a10.25,10.25,0,0,0-.977-.605c-.594-.273-1.667-.965-2.369-1.328-.484-.252-1.015-.463-1.51-.709l.3-1.028a6.622,6.622,0,0,0,4.91-1.6,7.14,7.14,0,0,0,2.071-3.122,6.288,6.288,0,0,0-1.917-6.444,6.559,6.559,0,0,0-9.7,8.79c.372.413.4.387.8.774a8.241,8.241,0,0,1-.5,1.047c-1.322-.455-6.152-2.008-7.567-1.608-.207.685-1.212,2.879-1.187,3.072.006.055.017.106.025.148.074.311,1.69,1.225,2.073,1.46.77.472,1.87,1.06,2.678,1.5l1.743.848c-2.308,5.153-4.453,11.994-7.474,16.559a3.006,3.006,0,0,1-.275.4c-.123.135-.019.028-.18.159l-.066.049c-1.369,1.079-2.316.956-3.886.351a6.6,6.6,0,0,1-2.964-2.109,9.4,9.4,0,0,1-1.623-3.433m22.707-27A3.617,3.617,0,0,1,32.4,6.143c.63,1.428.552,1.931-.2,3.359a3.592,3.592,0,0,1-5.87.451,3.671,3.671,0,0,1-.248-4.085,4.436,4.436,0,0,1,2.092-1.574Z" transform="translate(-0.004 -1.154)" fill="#ff9100" fill-rule="evenodd"/>
      <path id="Path_51220" data-name="Path 51220" d="M287.82.581V16.042c0,.438.29.338,1.015.338.26,0,.338-.078.338-.338V8.367h9.706v7.675c0,.461.353.338,1.242.338V.242H298.88V7.126h-9.706V.581c0-.438-.29-.338-1.015-.338-.26,0-.338.078-.338.338m14.785,15.8h1.242a11.672,11.672,0,0,1,.451-1.242,37.975,37.975,0,0,0,1.354-3.949h7.9c.226.971,1.739,4.417,1.919,5.191,1.942,0,1.711.554.193-3.241L311.276,2.4c-.258-.641-.567-1.561-.886-2.162H308.7l-4.612,11.98a31.607,31.607,0,0,0-1.483,4.159Zm7-14.785a5.126,5.126,0,0,0,.4,1.064l3.095,7.514h-7l1.678-4.3c.3-.755.546-1.419.855-2.194A7.629,7.629,0,0,1,309.6,1.6ZM238.389,16.381h1.242c.152-.315.332-.865.465-1.229l1.453-3.962h7.787l2.031,5.191h1.354a10.744,10.744,0,0,0-.774-2.046L250.32,10.32c-.29-.726-.533-1.271-.823-2L246.176.244h-1.692l-4.595,11.994a38.751,38.751,0,0,0-1.5,4.144Zm6.884-14.9,3.611,8.69h-7l3.385-8.69Zm25.506,5.982c0,2.443.182,5.047,1.887,6.8,1.925,1.982,3.279,2.34,6.012,2.34a6.35,6.35,0,0,0,3.867-1.436,5.523,5.523,0,0,0,1.887-3.416h-1.354c-.432,5.187-10.947,5.248-10.947-2.6,0-2.3-.07-4.29,1.553-6.122a6.258,6.258,0,0,1,7.683-.857,3.834,3.834,0,0,1,1.711,2.464h1.354a13.472,13.472,0,0,0-1.212-2.412,4.663,4.663,0,0,0-.789-.776A6.478,6.478,0,0,0,278.777.02H277.3a6.877,6.877,0,0,0-5.915,4.447,9.193,9.193,0,0,0-.609,3Zm-43.336,8.578c0,.26.078.338.338.338h9.141V15.029h-8.24V.242H227.44v15.8ZM254.979.581V16.042c0,.438.29.338,1.015.338.523,0,.341-.9.338-1.466V2.047c.288.212,2.134,3.089,2.483,3.611l2.437,3.658,4.241,6.367c.539.836.4.7,2.01.7V.242h-1.242V14.574c-.391-.286-5.39-8.028-6.027-8.984L257.21,1.052c-.63-.956-.317-.812-1.9-.812-.26,0-.338.078-.338.338Z" transform="translate(-179.328 -0.02)" fill="#ff9100" fill-rule="evenodd"/>
      <path id="Path_51221" data-name="Path 51221" d="M218.621,85.389l2.17-3.135,1.923-2.027c1.821-1.491,2.761.489-.338,3.5a7.072,7.072,0,0,1-3.755,1.663m46.723,11.963c-.5-2.158.474-5.079,3.385-5.079a3.8,3.8,0,0,1,3.611,3.611,10.911,10.911,0,0,1-1.13,5.418c-.552-.129-1.147-.184-1.682-.351s-1.045-.425-1.591-.552a4.228,4.228,0,0,1,.7-1.106c.677-.99,1.783-2.308,1.783-3.634,0-1.823-1.978-1.479-3.357-.085-.309.311-.537.535-.848.844a6.466,6.466,0,0,1-.874.933Zm-16.589,9.593c-1.493,0,.328-4.273.465-4.612.114-.279.222-.461.355-.772.152-.351.205-.525.379-.863,1.015-1.984,3.92-6.281,5.908-6.281a1.11,1.11,0,0,1,1.015,1.242,9.507,9.507,0,0,1-.565,1.807c-1.263,3.169-.135,1.762-2.418,4.918-.891,1.231-3.361,4.563-5.145,4.563Zm-55.638,0c-2.407,0,1.362-6.943,1.84-7.753.654-1.1,3.457-4.774,4.817-4.774.626,0,.943-.04,1.151.654a3.351,3.351,0,0,1-.326,2.993c-.328.537-.577.927-.863,1.506-.262.529-.474,1.045-.745,1.513a26.417,26.417,0,0,1-1.942,2.687,7.379,7.379,0,0,1-.52.607c-.753.81-2.253,2.568-3.414,2.568Zm88.687-9.8.622-1c.2-.37.37-.626.59-.99.63-1.045,1.972-3.789-.4-3.789-2.215,0-4.275,5.134-4.98,7.1a18.159,18.159,0,0,0-.888,3.175c-.937,0-1.565.112-2.6.112.093-1.128,2.543-6-.874-9.056-2.384-2.134-7.516-2.109-9.287,1.493a4.778,4.778,0,0,0,.228,4.743,29.5,29.5,0,0,1-2.579,4.193c-.438.588-4.079,4.84-4.079,2.467,0-4.455,4.091-12.293,6.143-15.751l.857-1.515a62.784,62.784,0,0,1,3.655-5.938,7.22,7.22,0,0,0,1.536-3.77c0-1.407-2-1.762-4.692,1.965a71.878,71.878,0,0,0-6.782,11.84c-.216.468-.233.821-.6,1.092a3.057,3.057,0,0,0-2.6-1.692h-.565c-2.536,0-5.373,3.055-6.613,5.126-.518.865-.865,1.716-1.377,2.572-1.559,2.6-4.3,7.685-6.795,9.005-1.4-2.638,3.611-8.6,3.611-11.286a1.4,1.4,0,0,0-1.354-1.58c-.41,0-.4.133-.789.226a4.716,4.716,0,0,0-.47-2.8c-1.771-2.7-6.291-.833-8.673,2.35-.374.5-.322.679-1.013.679-1.783,0-2.928-.584-3.12-2.3-.042-.387.345-2.338-1.068-2.407-.829-.042-1.343.829-1.343,1.661,0,1.022.451,2.194.451,3.611,0,1.838-1.529,4.411-2.261,5.638a19.937,19.937,0,0,1-2.225,2.739c-.22.22-.311.216-.563.453a4,4,0,0,1-1.155.876l-.112-1.128c0-3.186,1.394-5.739,2.748-8.426.719-1.428,3.7-5.456.413-5.456-1.1,0-2.215,1.542-2.672,2.407a32.483,32.483,0,0,0-1.7,3.495,10.449,10.449,0,0,1-1.32,2.179,24.816,24.816,0,0,1-2.976,3.909c-1.115,1.113-2.3,2.909-4.089,2.909-.876-3.757,3.92-12.648,5.682-15.874,2.2-4.032,1.18-2.943,3.89-3.67a8.712,8.712,0,0,0,5.627-4.641c.673-1.434.939-4.7-1.43-4.7h-.565c-1.7,0-4.222,2.619-5.164,3.639-.224.243-.239.326-.453.565l-1.525,1.859c-.671.9-1.273,1.713-1.887,2.627-1.635,0-3.1.14-4.857.116l-2.365-.116a19.477,19.477,0,0,0-6.642.806c-3.988,1.489-2.606,4.273-1.257,4.273s2.2-.922,3.127-1.614c.33-.247.613-.429.935-.645,3.336-2.228,6.329-1.466,10.158-1.466a26.527,26.527,0,0,1-1.506,2.67,52.135,52.135,0,0,0-3.105,7.277,50.452,50.452,0,0,1-4.658,7.869,15.512,15.512,0,0,1-2.492,2.811.93.93,0,0,1-.764.364c-.793-1.5.956-4.853,1.542-6.018.749-1.491,2.069-3.545,2.069-5.267,0-1.493-1.18-1.775-2.145-1.128l.112-1.13a2.982,2.982,0,0,0-2.708-3.046,6.949,6.949,0,0,0-4.95,1.933,3.9,3.9,0,0,0-.383.294,15.551,15.551,0,0,0-1.868,2.308c-2.321,3.4-1.553,4.612-2.953,5.284l-1.921.9c0-2.928-.789-4.994-.789-7.787,0-4.491,3.454-3.914,1.62-.749-.224.387-1.056.965-1.056,1.314,0,1.946,2.822-.633,2.822-2.369V91.828c0-1.7-3.226-2.983-5.441.542-1.627,2.585-1.039,5.164-.683,7.954a29.65,29.65,0,0,1,.144,3.694c-2.012.167-4.176,1.561-4.176,3.725a3.673,3.673,0,0,0,.707,2.454,3.331,3.331,0,0,0,2.34.819c3.364,0,4.626-4.218,4.626-7.11a11.046,11.046,0,0,0,2.145-1.128c-1.149,4.931,2.206,7.023,5.726,4.485a7.77,7.77,0,0,0,1.627-1.422c.248-.315.2-.347.548-.58l-.112,1.58c0,1.388.776,3.273,2.031,3.273,2.166,0,3.37-1.424,4.595-2.854.26-.3.5-.647.728-.965.406-.552,1.79-2.818,2.126-3.065,0,1.453-.732,4.4,2.6,4.4,2.566,0,4.21-2.043,5.784-3.7.415-.436,1.064-1.445,1.438-1.722l-.112,2.031c0,2.849,1.953,4.368,4.222,2.868a15.364,15.364,0,0,0,3.6-3.852,18.647,18.647,0,0,0,3.014-6.8,4.057,4.057,0,0,0,3.046.9l-1.369,3.146c-.6,1.794-1.43,5.054-.023,6.822a2.4,2.4,0,0,0,.785.683c2.357,1.293,5.238-1.309,6.587-2.864-.027,1.28-.62,3.983,1.464,4.859,1.132.476,2.5-.313,3.245-.941,2.426-2.048,2.706-3.45,4.1-5.047a5.136,5.136,0,0,0,.527,2.972c1.39,2.517,4.609.886,6.15-.36a31.639,31.639,0,0,0,2.579-2.953,7.3,7.3,0,0,0,.267,2.78c.723,1.7,3.554,1.413,5.219.108.7-.55,1.286-1.419,1.965-1.872-.254,1.089-.047,2.767.719,3.344,1.58,1.191,3.784.876,5.377.044,1.65-.861,4.777-3.539,5.189-5.305l3.046-.112a9.31,9.31,0,0,0,.349,3.715c.588,1.394,2.955,1.836,2.608-.114-.421-2.371.924-4.758,2.143-6.625.235-.36.518-.711.768-1.037a29.4,29.4,0,0,1,2.568-2.849c.546-.55,3.581-2.864,1.972-.512-.533.778-1.094,2.234.429,2.234.736,0,1.225-.878,1.534-1.4,1.183-2.005.81-3.943-1.168-3.768-2.107.188-4.893,3.256-5.784,4.942l-.131-.093Zm-49.977,9.8c-.565,0-.565-.36-.565-.9,0-3.459,4.893-11.624,7.675-11.624,1.221,0,1.015,1.639,1.015,2.6,0,.5-1.128,2.067-1.542,2.972C237.408,102.171,234.047,106.945,231.828,106.945Zm34.084.9c-1.039,0-.9-.609-.9-1.13,0-1.377,1.648-4.394,2.257-5.3a13.65,13.65,0,0,0,3.387.9,14.145,14.145,0,0,1-3.226,4.449c-.281.218-1.172,1.081-1.515,1.081Zm-83.627,1.13c-.675,0-.677-.963-.677-1.468,0-.92,1.4-2.01,2.369-2.031-.205.429-.294,1.513-.489,2.107S183,108.978,182.284,108.978Z" transform="translate(-141.955 -61.015)" fill="#ff9100" fill-rule="evenodd"/>
    </g>
  </g>
</svg>
