<svg xmlns="http://www.w3.org/2000/svg" width="20" height="20" viewBox="0 0 20 20">
  <g id="three_dots" transform="translate(-1148 -839)">
    <circle id="Ellipse_345" data-name="Ellipse 345" cx="10" cy="10" r="10" transform="translate(1148 839)" fill="#ff9100"/>
    <g id="dots" transform="translate(1149 835)">
      <path id="XMLID_287_" d="M14.385,13a1.385,1.385,0,1,0,1.385,1.385A1.386,1.386,0,0,0,14.385,13Z" transform="translate(-5.385)" fill="#fff"/>
      <path id="XMLID_289_" d="M4.385,13a1.385,1.385,0,1,0,1.385,1.385A1.386,1.386,0,0,0,4.385,13Z" transform="translate(0)" fill="#fff"/>
      <path id="XMLID_291_" d="M24.385,13a1.385,1.385,0,1,0,1.385,1.385A1.386,1.386,0,0,0,24.385,13Z" transform="translate(-10.769)" fill="#fff"/>
    </g>
  </g>
</svg>
