<svg xmlns="http://www.w3.org/2000/svg" width="12.301" height="14" viewBox="0 0 12.301 14">
  <g id="tiktok" transform="translate(-31.422 -0.39)">
    <path id="Path_51880" data-name="Path 51880" d="M43.716,3.9a3.527,3.527,0,0,1-2.131-.712A3.528,3.528,0,0,1,40.176.39H37.89V6.636l0,3.421a2.072,2.072,0,1,1-1.421-1.963V5.773a4.5,4.5,0,0,0-.659-.049A4.383,4.383,0,0,0,32.513,7.2a4.3,4.3,0,0,0,.194,5.923,4.459,4.459,0,0,0,.413.361,4.384,4.384,0,0,0,2.687.908,4.5,4.5,0,0,0,.659-.048,4.369,4.369,0,0,0,2.441-1.221,4.28,4.28,0,0,0,1.284-3.046l-.012-5.109a5.792,5.792,0,0,0,3.544,1.2V3.895h-.007Z" fill="#fff"/>
  </g>
</svg>
