<svg id="visibility_off" xmlns="http://www.w3.org/2000/svg" width="20" height="20" viewBox="0 0 20 20">
  <path id="Path_30" data-name="Path 30" d="M0,0H20V20H0ZM0,0H20V20H0ZM0,0H20V20H0ZM0,0H20V20H0Z" fill="none"/>
  <path id="Path_31" data-name="Path 31" d="M10.162,6.329a4.164,4.164,0,0,1,4.165,4.161,4.036,4.036,0,0,1-.3,1.523l2.432,2.43a9.835,9.835,0,0,0,2.857-3.953,9.851,9.851,0,0,0-9.162-6.242,9.707,9.707,0,0,0-3.315.583l1.8,1.8A4.046,4.046,0,0,1,10.162,6.329ZM1.833,4.057l1.9,1.9.383.383A9.824,9.824,0,0,0,1,10.49a9.851,9.851,0,0,0,12.811,5.543l.35.35,2.441,2.43,1.058-1.057L2.891,3Zm4.606,4.6L7.73,9.949a2.346,2.346,0,0,0-.067.541,2.494,2.494,0,0,0,2.5,2.5,2.352,2.352,0,0,0,.541-.067l1.291,1.29A4.135,4.135,0,0,1,6.439,8.659Zm3.59-.649,2.624,2.621.017-.133a2.494,2.494,0,0,0-2.5-2.5Z" transform="translate(-0.162 -0.487)" fill="#9d9fa2"/>
</svg>
