<svg id="visibility_on" xmlns="http://www.w3.org/2000/svg" width="20" height="20" viewBox="0 0 20 20">
  <path id="Path_52091" data-name="Path 52091" d="M0,0H20V20H0Z" fill="none"/>
  <path id="Path_52092" data-name="Path 52092" d="M10.167,4.5A9.856,9.856,0,0,0,1,10.75a9.847,9.847,0,0,0,18.333,0A9.856,9.856,0,0,0,10.167,4.5Zm0,10.417a4.167,4.167,0,1,1,4.167-4.167A4.168,4.168,0,0,1,10.167,14.917Zm0-6.667a2.5,2.5,0,1,0,2.5,2.5A2.5,2.5,0,0,0,10.167,8.25Z" transform="translate(-0.167 -0.75)" fill="#9d9fa2"/>
</svg>
