<svg xmlns="http://www.w3.org/2000/svg" width="20" height="20" viewBox="0 0 20 20">
  <g id="whatsapp" transform="translate(0 1)">
    <g id="_09.whatsapp" data-name="09.whatsapp">
      <circle id="background" cx="10" cy="10" r="10" transform="translate(0 -1)" fill="#29a71a"/>
      <g id="icon" transform="translate(4 3)">
        <path id="Path_52082" data-name="Path 52082" d="M44.055,34.862a6.2,6.2,0,0,0-9.934,7.174l-.658,3.194a.236.236,0,0,0,.038.185.24.24,0,0,0,.255.1l3.131-.742a6.2,6.2,0,0,0,7.169-9.91Zm-.976,7.791a4.857,4.857,0,0,1-5.593.909l-.436-.216L35.13,43.8l.006-.024.4-1.932-.214-.422a4.855,4.855,0,0,1,7.759-5.635.259.259,0,0,0,.025.025A4.855,4.855,0,0,1,43.079,42.653Z" transform="translate(-33.447 -33.024)" fill="#fff"/>
        <path id="Path_52083" data-name="Path 52083" d="M66.9,66.263a2.016,2.016,0,0,1-1.074.936c-.818.2-2.074.007-3.636-1.45l-.019-.017c-1.374-1.274-1.731-2.334-1.644-3.175a2.01,2.01,0,0,1,.781-1.191.447.447,0,0,1,.7.16l.506,1.136a.444.444,0,0,1-.056.455l-.256.332a.44.44,0,0,0-.04.491,4.778,4.778,0,0,0,.867.963,5.06,5.06,0,0,0,1.2.86.434.434,0,0,0,.476-.1l.3-.3a.455.455,0,0,1,.443-.114l1.2.341a.455.455,0,0,1,.255.672Z" transform="translate(-57.438 -58.051)" fill="#fff"/>
      </g>
    </g>
  </g>
</svg>
