<svg xmlns="http://www.w3.org/2000/svg" width="19.219" height="19.371" viewBox="0 0 19.219 19.371">
  <g id="whatsapp_header" transform="translate(-4.891 -5.816)">
    <g id="_09.whatsapp" data-name="09.whatsapp">
      <g id="icon" transform="translate(-1)">
        <path id="Path_51876" data-name="Path 51876" d="M22.334,8.666a9.612,9.612,0,0,0-15.4,11.119l-1.02,4.951a.366.366,0,0,0,.058.287.372.372,0,0,0,.395.153l4.853-1.15A9.61,9.61,0,0,0,22.334,8.666ZM20.821,20.742a7.528,7.528,0,0,1-8.669,1.409l-.676-.335-2.975.7.009-.037.616-2.994-.331-.653A7.525,7.525,0,0,1,20.821,10.1a.4.4,0,0,0,.039.039A7.525,7.525,0,0,1,20.821,20.742Z" fill="#fff"/>
        <path id="Path_51877" data-name="Path 51877" d="M20.557,18.545A3.125,3.125,0,0,1,18.892,20c-1.268.306-3.214.011-5.636-2.248l-.03-.026C11.1,15.748,10.544,14.1,10.677,12.8a3.115,3.115,0,0,1,1.21-1.846.692.692,0,0,1,1.083.248l.784,1.761a.689.689,0,0,1-.086.7l-.4.514a.682.682,0,0,0-.062.761,7.405,7.405,0,0,0,1.344,1.492,7.844,7.844,0,0,0,1.862,1.333.673.673,0,0,0,.738-.155l.46-.463a.7.7,0,0,1,.687-.176l1.862.528a.7.7,0,0,1,.395,1.041Z" fill="#fff"/>
      </g>
    </g>
  </g>
</svg>
