<svg id="whatsapp_fix" data-name="whatsapp+fix" xmlns="http://www.w3.org/2000/svg" width="58" height="58" viewBox="0 0 58 58">
  <g id="_09.whatsapp" data-name="09.whatsapp">
    <circle id="background" cx="29" cy="29" r="29" fill="#29a71a"/>
    <g id="icon" transform="translate(11.022 10.883)">
      <path id="Path_51878" data-name="Path 51878" d="M64.211,38.355A17.983,17.983,0,0,0,35.4,59.159l-1.908,9.264a.685.685,0,0,0,.109.537.7.7,0,0,0,.738.287l9.079-2.152a17.98,17.98,0,0,0,20.791-28.74ZM61.38,60.948a14.085,14.085,0,0,1-16.22,2.636l-1.265-.626-5.566,1.318.016-.069,1.153-5.6-.62-1.223a14.078,14.078,0,0,1,22.5-16.342.75.75,0,0,0,.072.072A14.078,14.078,0,0,1,61.38,60.948Z" transform="translate(-33.447 -33.024)" fill="#fff"/>
      <path id="Path_51879" data-name="Path 51879" d="M79.033,75.769a5.847,5.847,0,0,1-3.114,2.715c-2.373.573-6.014.02-10.545-4.205l-.056-.049c-3.984-3.694-5.019-6.769-4.769-9.208a5.828,5.828,0,0,1,2.264-3.454,1.3,1.3,0,0,1,2.027.465l1.466,3.3a1.289,1.289,0,0,1-.161,1.318l-.741.962a1.275,1.275,0,0,0-.115,1.424A13.855,13.855,0,0,0,67.8,71.825a14.675,14.675,0,0,0,3.483,2.495,1.259,1.259,0,0,0,1.381-.29l.86-.867a1.318,1.318,0,0,1,1.285-.33l3.483.989a1.318,1.318,0,0,1,.738,1.948Z" transform="translate(-51.594 -51.954)" fill="#fff"/>
    </g>
  </g>
</svg>
