<svg xmlns="http://www.w3.org/2000/svg" width="14" height="9.853" viewBox="0 0 14 9.853">
  <path id="youtube" d="M13.454,46.763c-.505-.6-1.438-.846-3.22-.846H3.766c-1.823,0-2.772.261-3.275.9C0,47.441,0,48.36,0,49.631v2.424c0,2.464.582,3.714,3.766,3.714h6.468c1.545,0,2.4-.216,2.955-.746s.81-1.431.81-2.968V49.631C14,48.29,13.962,47.366,13.454,46.763ZM8.988,51.178,6.051,52.713a.452.452,0,0,1-.661-.4v-3.06a.452.452,0,0,1,.66-.4l2.937,1.525a.452.452,0,0,1,0,.8Z" transform="translate(0 -45.917)" fill="#fff"/>
</svg>
